<svg width="18" height="22" viewBox="0 0 18 22" fill="none" xmlns="http://www.w3.org/2000/svg">
<path d="M9.53216 21.258L9.52016 21.26L9.44916 21.295L9.42916 21.299L9.41516 21.295L9.34416 21.259C9.33349 21.2563 9.32549 21.2583 9.32016 21.265L9.31616 21.275L9.29916 21.703L9.30416 21.723L9.31416 21.736L9.41816 21.81L9.43316 21.814L9.44516 21.81L9.54916 21.736L9.56116 21.72L9.56516 21.703L9.54816 21.276C9.54549 21.2653 9.54016 21.2593 9.53216 21.258ZM9.79616 21.145L9.78216 21.147L9.59816 21.24L9.58816 21.25L9.58516 21.261L9.60316 21.691L9.60816 21.703L9.61616 21.711L9.81716 21.803C9.82983 21.8063 9.83949 21.8037 9.84616 21.795L9.85016 21.781L9.81616 21.167C9.81283 21.1543 9.80616 21.147 9.79616 21.145ZM9.08116 21.147C9.07675 21.1443 9.07149 21.1435 9.06646 21.1446C9.06143 21.1457 9.05702 21.1487 9.05416 21.153L9.04816 21.167L9.01416 21.781C9.01483 21.793 9.02049 21.801 9.03116 21.805L9.04616 21.803L9.24716 21.71L9.25716 21.702L9.26016 21.691L9.27816 21.261L9.27516 21.249L9.26516 21.239L9.08116 21.147Z" fill="#B1B1B1"/>
<path d="M8.93816 0C7.08165 0 5.30117 0.737498 3.98842 2.05025C2.67566 3.36301 1.93816 5.14348 1.93816 7V10.528C1.93831 10.6831 1.90236 10.8362 1.83316 10.975L0.116163 14.408C0.0322892 14.5757 -0.00731514 14.7621 0.00111129 14.9494C0.00953771 15.1368 0.0657151 15.3188 0.164308 15.4783C0.262901 15.6379 0.400635 15.7695 0.56443 15.8608C0.728224 15.9521 0.912641 16 1.10016 16H16.7762C16.9637 16 17.1481 15.9521 17.3119 15.8608C17.4757 15.7695 17.6134 15.6379 17.712 15.4783C17.8106 15.3188 17.8668 15.1368 17.8752 14.9494C17.8836 14.7621 17.844 14.5757 17.7602 14.408L16.0442 10.975C15.9746 10.8362 15.9383 10.6832 15.9382 10.528V7C15.9382 5.14348 15.2007 3.36301 13.8879 2.05025C12.5752 0.737498 10.7947 0 8.93816 0ZM8.93816 19C8.31751 19.0003 7.71204 18.8081 7.20518 18.4499C6.69833 18.0917 6.31505 17.5852 6.10816 17H11.7682C11.5613 17.5852 11.178 18.0917 10.6711 18.4499C10.1643 18.8081 9.55882 19.0003 8.93816 19Z" fill="#B1B1B1"/>
</svg>
