<svg width="156" height="156" viewBox="0 0 156 156" fill="none" xmlns="http://www.w3.org/2000/svg">
<rect x="1.21875" y="1.21875" width="153.562" height="153.562" rx="37.7812" fill="#111204"/>
<rect x="1.21875" y="1.21875" width="153.562" height="153.562" rx="37.7812" stroke="#C0FE62" stroke-width="2.4375"/>
<path d="M85.0697 52.8135C85.7955 53.0176 86.4106 53.5017 86.7796 54.1592C87.1486 54.8167 87.2414 55.5939 87.0376 56.3198L74.4397 101.217C74.3389 101.577 74.1682 101.913 73.9375 102.206C73.7067 102.5 73.4203 102.745 73.0947 102.928C72.7691 103.111 72.4107 103.229 72.0398 103.273C71.669 103.317 71.293 103.288 70.9334 103.188C70.5738 103.087 70.2375 102.916 69.9439 102.685C69.6502 102.455 69.4048 102.168 69.2218 101.843C69.0389 101.517 68.9218 101.159 68.8773 100.788C68.8328 100.417 68.8618 100.041 68.9627 99.6813L81.5605 54.7842C81.6613 54.4242 81.832 54.0876 82.063 53.7937C82.2939 53.4998 82.5806 53.2543 82.9065 53.0713C83.2324 52.8882 83.5912 52.7713 83.9624 52.727C84.3336 52.6828 84.7099 52.7122 85.0697 52.8135ZM64.37 63.924C64.9031 64.4573 65.2026 65.1805 65.2026 65.9345C65.2026 66.6886 64.9031 67.4118 64.37 67.9451L54.3174 78.0006L64.37 88.0532C64.6342 88.3172 64.8439 88.6307 64.9869 88.9758C65.13 89.3208 65.2037 89.6906 65.2038 90.0642C65.2039 90.4377 65.1305 90.8076 64.9877 91.1527C64.8449 91.4979 64.6355 91.8115 64.3714 92.0757C64.1074 92.3399 63.7939 92.5495 63.4489 92.6926C63.1039 92.8357 62.734 92.9094 62.3605 92.9095C61.987 92.9096 61.6171 92.8362 61.2719 92.6934C60.9268 92.5505 60.6132 92.3411 60.349 92.0771L48.2829 80.0111C47.7498 79.4778 47.4503 78.7546 47.4503 78.0006C47.4503 77.2465 47.7498 76.5233 48.2829 75.99L60.349 63.924C60.8822 63.3909 61.6054 63.0914 62.3595 63.0914C63.1136 63.0914 63.8367 63.3909 64.37 63.924ZM91.6302 67.9451C91.3586 67.6827 91.142 67.3689 90.9929 67.022C90.8439 66.675 90.7654 66.3019 90.7621 65.9243C90.7589 65.5467 90.8308 65.1722 90.9738 64.8227C91.1168 64.4733 91.328 64.1558 91.595 63.8887C91.862 63.6217 92.1795 63.4106 92.529 63.2676C92.8785 63.1246 93.2529 63.0527 93.6305 63.0559C94.0081 63.0592 94.3813 63.1377 94.7282 63.2867C95.0751 63.4357 95.3889 63.6524 95.6513 63.924L107.717 75.99C108.25 76.5233 108.55 77.2465 108.55 78.0006C108.55 78.7546 108.25 79.4778 107.717 80.0111L95.6513 92.0771C95.1177 92.6103 94.3941 92.9098 93.6397 92.9095C92.8854 92.9092 92.162 92.6093 91.6288 92.0757C91.0956 91.5421 90.7961 90.8185 90.7964 90.0642C90.7967 89.3098 91.0966 88.5864 91.6302 88.0532L101.683 78.0006L91.6302 67.9451Z" fill="white"/>
</svg>
