<svg width="19" height="20" viewBox="0 0 19 20" fill="none" xmlns="http://www.w3.org/2000/svg">
<path d="M2.28571 17.7143H5.71428V12C5.71428 11.6762 5.824 11.4049 6.04343 11.1863C6.26286 10.9676 6.53409 10.8579 6.85714 10.8571H11.4286C11.7524 10.8571 12.024 10.9669 12.2434 11.1863C12.4629 11.4057 12.5722 11.6769 12.5714 12V17.7143H16V7.42857L9.14286 2.28571L2.28571 7.42857V17.7143ZM0 17.7143V7.42857C0 7.06666 0.0811426 6.72381 0.243428 6.4C0.405714 6.07619 0.629333 5.80952 0.914286 5.6L7.77143 0.457143C8.17143 0.152381 8.62857 0 9.14286 0C9.65714 0 10.1143 0.152381 10.5143 0.457143L17.3714 5.6C17.6571 5.80952 17.8811 6.07619 18.0434 6.4C18.2057 6.72381 18.2865 7.06666 18.2857 7.42857V17.7143C18.2857 18.3429 18.0617 18.8811 17.6137 19.3291C17.1657 19.7771 16.6278 20.0008 16 20H11.4286C11.1048 20 10.8335 19.8903 10.6149 19.6709C10.3962 19.4514 10.2865 19.1802 10.2857 18.8571V13.1429H8V18.8571C8 19.1809 7.89028 19.4526 7.67086 19.672C7.45143 19.8914 7.18019 20.0008 6.85714 20H2.28571C1.65714 20 1.11924 19.7764 0.672 19.3291C0.224762 18.8819 0.000761905 18.3436 0 17.7143Z" fill="white"/>
</svg>
