<svg width="10" height="16" viewBox="0 0 10 16" fill="none" xmlns="http://www.w3.org/2000/svg">
<path d="M9.01673 15.5791C9.14957 15.4465 9.25496 15.289 9.32687 15.1157C9.39878 14.9423 9.43579 14.7565 9.43579 14.5688C9.43579 14.3812 9.39878 14.1953 9.32687 14.022C9.25496 13.8486 9.14957 13.6912 9.01673 13.5586L3.45689 7.99875L9.01673 2.43891C9.28466 2.17098 9.43518 1.80759 9.43518 1.42868C9.43518 1.04977 9.28466 0.686378 9.01673 0.418448C8.7488 0.150519 8.38541 9.53674e-07 8.0065 9.53674e-07C7.62759 9.53674e-07 7.2642 0.150519 6.99627 0.418448L0.419038 6.99569C0.286198 7.12825 0.180808 7.28572 0.1089 7.45907C0.036993 7.63242 -1.90735e-05 7.81825 -1.90735e-05 8.00592C-1.90735e-05 8.19359 0.036993 8.37942 0.1089 8.55276C0.180808 8.72611 0.286198 8.88358 0.419038 9.01615L6.99627 15.5934C7.5408 16.1379 8.45788 16.1379 9.01673 15.5791Z" fill="#6A6A6A"/>
</svg>
