<svg width="6" height="24" viewBox="0 0 6 24" fill="none" xmlns="http://www.w3.org/2000/svg">
<path d="M0.649217 13.5686C0.743627 14.552 0.903697 15.2828 1.12399 15.7649C1.34674 16.2454 1.74355 16.4855 2.31441 16.4853C2.42125 16.4853 2.51683 16.4686 2.61163 16.4491C2.70876 16.4686 2.80394 16.4853 2.91156 16.4853C3.48191 16.4853 3.8782 16.2452 4.10043 15.7649C4.32189 15.2828 4.47924 14.552 4.57559 13.5686L5.083 5.9762C5.1778 4.49646 5.22533 3.43438 5.22559 2.78996C5.22584 1.91268 4.99649 1.22824 4.53752 0.736633C4.07673 0.245285 3.47142 -0.000258808 2.72158 2.04699e-07C2.68156 2.04699e-07 2.65164 0.00893622 2.6124 0.0104903C2.57511 0.00893622 2.54441 2.04699e-07 2.50556 2.04699e-07C1.75417 2.04699e-07 1.15002 0.245156 0.690011 0.736633C0.230263 1.22902 0.000260063 1.91359 1.05005e-06 2.79035C-0.000257963 3.43477 0.0474004 4.49685 0.142976 5.97659L0.649217 13.5686ZM2.63144 19.2605C1.90336 19.2605 1.28483 19.4901 0.771211 19.9493C0.257848 20.409 0.00103667 20.9666 0.000777662 21.6219C0.000777662 22.3612 0.261086 22.9432 0.777816 23.3659C1.29688 23.7886 1.90232 24 2.59414 24C3.2984 24 3.91304 23.7914 4.43806 23.3741C4.96256 22.9576 5.22481 22.3725 5.22481 21.6227C5.22481 20.9673 4.97382 20.4098 4.47186 19.9501C3.97015 19.4901 3.35629 19.2602 2.63028 19.2605" fill="#949494"/>
</svg>
