<svg width="65" height="51" viewBox="0 0 65 51" fill="none" xmlns="http://www.w3.org/2000/svg">
<path d="M11.5909 12.75C11.5909 10.5981 12.4457 8.5344 13.9673 7.01279C15.4889 5.49119 17.5527 4.63636 19.7045 4.63636C21.8564 4.63636 23.9202 5.49119 25.4418 7.01279C26.9634 8.5344 27.8182 10.5981 27.8182 12.75C27.8182 14.9019 26.9634 16.9656 25.4418 18.4872C23.9202 20.0088 21.8564 20.8636 19.7045 20.8636C17.5527 20.8636 15.4889 20.0088 13.9673 18.4872C12.4457 16.9656 11.5909 14.9019 11.5909 12.75ZM19.7045 0C16.323 0 13.08 1.3433 10.6889 3.73439C8.29785 6.12548 6.95455 9.36849 6.95455 12.75C6.95455 16.1315 8.29785 19.3745 10.6889 21.7656C13.08 24.1567 16.323 25.5 19.7045 25.5C23.0861 25.5 26.3291 24.1567 28.7202 21.7656C31.1112 19.3745 32.4545 16.1315 32.4545 12.75C32.4545 9.36849 31.1112 6.12548 28.7202 3.73439C26.3291 1.3433 23.0861 0 19.7045 0ZM44.0455 16.2273C44.0455 14.9976 44.5339 13.8184 45.4034 12.9489C46.2729 12.0794 47.4522 11.5909 48.6818 11.5909C49.9115 11.5909 51.0907 12.0794 51.9602 12.9489C52.8297 13.8184 53.3182 14.9976 53.3182 16.2273C53.3182 17.4569 52.8297 18.6362 51.9602 19.5057C51.0907 20.3752 49.9115 20.8636 48.6818 20.8636C47.4522 20.8636 46.2729 20.3752 45.4034 19.5057C44.5339 18.6362 44.0455 17.4569 44.0455 16.2273ZM48.6818 6.95455C46.2225 6.95455 43.864 7.93149 42.125 9.67046C40.386 11.4094 39.4091 13.768 39.4091 16.2273C39.4091 18.6866 40.386 21.0451 42.125 22.7841C43.864 24.5231 46.2225 25.5 48.6818 25.5C51.1411 25.5 53.4997 24.5231 55.2386 22.7841C56.9776 21.0451 57.9546 18.6866 57.9546 16.2273C57.9546 13.768 56.9776 11.4094 55.2386 9.67046C53.4997 7.93149 51.1411 6.95455 48.6818 6.95455ZM0 37.0909C0 35.2464 0.732709 33.4775 2.03694 32.1733C3.34117 30.8691 5.11009 30.1364 6.95455 30.1364H32.4545C34.299 30.1364 36.0679 30.8691 37.3722 32.1733C38.6764 33.4775 39.4091 35.2464 39.4091 37.0909V37.6148C39.4037 37.831 39.3882 38.0468 39.3627 38.2616C39.3164 38.6626 39.2306 39.2074 39.0614 39.8519C38.6138 41.5511 37.826 43.1418 36.7455 44.5276C34.0332 48.0095 28.9309 51 19.7045 51C10.4782 51 5.37818 48.0095 2.66359 44.5276C1.58231 43.142 0.79365 41.5513 0.345409 39.8519C0.169563 39.1697 0.0562759 38.4729 0.00695459 37.7701L0.00231801 37.6148V37.5615L0 37.543V37.0909ZM4.63636 37.5035V37.5314C4.63636 37.5715 4.64332 37.6442 4.65723 37.7493C4.68041 37.9579 4.72909 38.2825 4.83341 38.6858C5.04205 39.4925 5.46627 40.5821 6.31936 41.6786C7.95368 43.7742 11.5445 46.3636 19.7045 46.3636C27.8645 46.3636 31.4577 43.7742 33.0897 41.6809C33.7812 40.7928 34.2859 39.774 34.5734 38.6858C34.6722 38.3073 34.7389 37.9211 34.7727 37.5314L34.775 37.5035V37.0909C34.775 36.4761 34.5308 35.8864 34.0961 35.4517C33.6613 35.017 33.0717 34.7727 32.4569 34.7727H6.95455C6.33973 34.7727 5.75009 35.017 5.31534 35.4517C4.8806 35.8864 4.63636 36.4761 4.63636 37.0909V37.5035ZM40.5149 45.186C42.6708 45.9185 45.3529 46.3636 48.6818 46.3636C56.1023 46.3636 60.3191 44.1544 62.6211 41.4375C63.7407 40.1161 64.3133 38.7762 64.6031 37.747C64.759 37.1951 64.8592 36.6289 64.9021 36.057L64.9045 35.9735L64.9068 35.9225V35.8345C64.9071 35.0863 64.76 34.3454 64.4739 33.6541C64.1878 32.9627 63.7683 32.3346 63.2393 31.8054C62.7104 31.2763 62.0824 30.8565 61.3912 30.5702C60.7 30.2838 59.9592 30.1364 59.211 30.1364H40.2274C41.3865 31.4322 42.228 33.0179 42.6267 34.7727H59.211C59.7906 34.7727 60.2588 35.234 60.2727 35.8066L60.2635 35.9086C60.2357 36.1042 60.1954 36.2978 60.1429 36.4882C59.9992 36.9982 59.7025 37.7122 59.0835 38.4424C57.9082 39.831 55.1704 41.7273 48.6818 41.7273C45.9811 41.7273 43.9319 41.3981 42.374 40.9159C41.9629 42.4213 41.3367 43.8594 40.5149 45.186Z" fill="white"/>
</svg>
