<svg width="11" height="20" viewBox="0 0 11 20" fill="none" xmlns="http://www.w3.org/2000/svg">
<path d="M7.99094 5.3421C7.99094 4.58771 7.74111 3.98245 7.24147 3.52631C6.74182 3.07017 6.07936 2.8421 5.2541 2.8421C4.74533 2.8421 4.28498 2.95193 3.87305 3.17157C3.46112 3.39122 3.10568 3.71122 2.80674 4.13157C2.52603 4.53508 2.14428 4.76771 1.66147 4.82947C1.17867 4.89122 0.762176 4.76385 0.412002 4.44736C0.166388 4.21929 0.0305985 3.93859 0.0046336 3.60526C-0.0213313 3.27193 0.0618265 2.95614 0.254107 2.65789C0.81551 1.81579 1.5306 1.16245 2.39937 0.697894C3.26814 0.233333 4.21972 0.000701753 5.2541 0C6.95585 0 8.3376 0.482455 9.39936 1.44737C10.4611 2.41228 10.9916 3.67543 10.9909 5.23683C10.9909 6.02631 10.8243 6.73683 10.4909 7.36841C10.1576 7.99999 9.54357 8.7456 8.64883 9.60525C7.99971 10.2193 7.56111 10.6975 7.33304 11.04C7.10497 11.3824 6.95585 11.7726 6.88568 12.2105C6.8155 12.6316 6.6355 12.9824 6.34568 13.2631C6.05585 13.5438 5.70954 13.6842 5.30673 13.6842C4.90393 13.6842 4.55761 13.5484 4.26779 13.2768C3.97796 13.0052 3.83305 12.6673 3.83305 12.2631C3.83305 11.5789 3.98217 10.9519 4.28042 10.3821C4.57866 9.81227 5.07866 9.21121 5.78042 8.57893C6.67515 7.78946 7.26743 7.17999 7.55725 6.75052C7.84708 6.32104 7.99164 5.85157 7.99094 5.3421ZM5.2541 20C4.67515 20 4.17972 19.794 3.76779 19.3821C3.35586 18.9701 3.14954 18.4744 3.14884 17.8947C3.14814 17.3151 3.35445 16.8196 3.76779 16.4084C4.18112 15.9972 4.67656 15.7909 5.2541 15.7895C5.83164 15.788 6.32743 15.9944 6.74147 16.4084C7.1555 16.8224 7.36147 17.3179 7.35936 17.8947C7.35725 18.4716 7.15129 18.9673 6.74147 19.3821C6.33164 19.7968 5.83585 20.0028 5.2541 20Z" fill="#949494"/>
</svg>
