<svg width="10" height="16" viewBox="0 0 10 16" fill="none" xmlns="http://www.w3.org/2000/svg">
<path d="M0.419058 15.5791C0.286218 15.4465 0.180828 15.289 0.108921 15.1157C0.0370134 14.9423 0 14.7565 0 14.5688C0 14.3812 0.0370134 14.1953 0.108921 14.022C0.180828 13.8486 0.286218 13.6912 0.419058 13.5586L5.9789 7.99875L0.419058 2.43891C0.151128 2.17098 0.000606756 1.80759 0.000606756 1.42868C0.000606756 1.04977 0.151128 0.686378 0.419058 0.418448C0.686987 0.150519 1.05038 9.53674e-07 1.42929 9.53674e-07C1.8082 9.53674e-07 2.17159 0.150519 2.43952 0.418448L9.01675 6.99569C9.14959 7.12825 9.25498 7.28572 9.32689 7.45907C9.3988 7.63242 9.43581 7.81825 9.43581 8.00592C9.43581 8.19359 9.3988 8.37942 9.32689 8.55276C9.25498 8.72611 9.14959 8.88358 9.01675 9.01615L2.43952 15.5934C1.895 16.1379 0.977908 16.1379 0.419058 15.5791Z" fill="#6A6A6A"/>
</svg>
