<svg width="22" height="20" viewBox="0 0 22 20" fill="none" xmlns="http://www.w3.org/2000/svg">
<path d="M8.03877 14.7905C5.79204 14.7905 3.89076 14.0745 2.33495 12.6425C0.779143 11.2105 0.000825143 9.46139 6.54356e-07 7.39527C-0.000823835 5.32914 0.777494 3.58007 2.33495 2.14804C3.89241 0.716014 5.79368 0 8.03877 0C10.2839 0 12.1855 0.716014 13.7438 2.14804C15.3021 3.58007 16.08 5.32914 16.0775 7.39527C16.0775 8.22961 15.9332 9.01654 15.6447 9.75607C15.3561 10.4956 14.9645 11.1498 14.4698 11.7187L21.3955 18.09C21.6222 18.2985 21.7356 18.564 21.7356 18.8864C21.7356 19.2087 21.6222 19.4742 21.3955 19.6828C21.1688 19.8914 20.8802 19.9957 20.5298 19.9957C20.1794 19.9957 19.8908 19.8914 19.6641 19.6828L12.7384 13.3115C12.12 13.7666 11.4089 14.1269 10.605 14.3923C9.80111 14.6578 8.94571 14.7905 8.03877 14.7905ZM8.03877 12.5151C9.58468 12.5151 10.8989 12.0175 11.9815 11.0224C13.064 10.0272 13.6049 8.81819 13.6041 7.39527C13.6032 5.97234 13.0624 4.76369 11.9815 3.76931C10.9006 2.77493 9.58633 2.27698 8.03877 2.27547C6.4912 2.27395 5.17738 2.7719 4.0973 3.76931C3.01722 4.76673 2.47594 5.97538 2.47347 7.39527C2.47099 8.81516 3.01227 10.0242 4.0973 11.0224C5.18233 12.0205 6.49615 12.5181 8.03877 12.5151Z" fill="#949494"/>
</svg>
