<svg width="120" height="120" viewBox="0 0 120 120" fill="none" xmlns="http://www.w3.org/2000/svg">
<rect x="0.9375" y="0.9375" width="118.125" height="118.125" rx="29.0625" fill="#111204"/>
<rect x="0.9375" y="0.9375" width="118.125" height="118.125" rx="29.0625" stroke="#C0FE62" stroke-width="1.875"/>
<path d="M84.9753 75.0325C82.9729 73.0286 80.6332 71.393 78.0635 70.2006C81.6874 67.2647 83.9993 62.7849 83.9993 57.761C83.9993 48.8973 76.6075 41.6255 67.7438 41.7615C59.016 41.8975 51.9842 49.0093 51.9842 57.761C51.9842 62.7849 54.3042 67.2647 57.9201 70.2006C55.3498 71.3921 53.01 73.0278 51.0083 75.0325C46.6404 79.4084 44.1605 85.1842 44.0005 91.344C43.9983 91.4294 44.0133 91.5143 44.0445 91.5938C44.0757 91.6733 44.1225 91.7458 44.1822 91.8069C44.2418 91.8681 44.3131 91.9166 44.3918 91.9498C44.4705 91.983 44.555 92 44.6404 92H49.1203C49.4643 92 49.7523 91.728 49.7603 91.384C49.9123 86.7442 51.7922 82.4003 55.0961 79.1044C56.7868 77.4047 58.7978 76.0573 61.0127 75.14C63.2276 74.2227 65.6024 73.7539 67.9998 73.7605C72.8716 73.7605 77.4555 75.6565 80.9034 79.1044C84.1993 82.4003 86.0792 86.7442 86.2392 91.384C86.2472 91.728 86.5352 92 86.8792 92H91.3591C91.4445 92 91.529 91.983 91.6077 91.9498C91.6864 91.9166 91.7577 91.8681 91.8174 91.8069C91.877 91.7458 91.9238 91.6733 91.955 91.5938C91.9862 91.5143 92.0012 91.4294 91.9991 91.344C91.8391 85.1842 89.3591 79.4084 84.9753 75.0325ZM67.9998 68.0007C65.2638 68.0007 62.6879 66.9367 60.76 65.0008C59.7924 64.0409 59.0281 62.8959 58.5127 61.6342C57.9973 60.3724 57.7413 59.0198 57.7601 57.657C57.7841 55.0331 58.832 52.4972 60.664 50.6172C62.5839 48.6493 65.1518 47.5533 67.8958 47.5213C70.6077 47.4973 73.2396 48.5533 75.1755 50.4492C77.1595 52.3932 78.2475 54.9931 78.2475 57.761C78.2475 60.4969 77.1835 63.0648 75.2475 65.0008C74.2978 65.9551 73.1681 66.7117 71.9241 67.2266C70.68 67.7415 69.3462 68.0046 67.9998 68.0007ZM47.9603 59.8729C47.8883 59.177 47.8484 58.473 47.8484 57.761C47.8484 56.489 47.9683 55.2491 48.1923 54.0411C48.2483 53.7531 48.0963 53.4571 47.8323 53.3371C46.7444 52.8492 45.7444 52.1772 44.8804 51.3292C43.8624 50.3421 43.0613 49.1536 42.5282 47.8396C41.9952 46.5255 41.7419 45.1148 41.7845 43.6974C41.8565 41.1295 42.8885 38.6896 44.6884 36.8496C46.6644 34.8257 49.3203 33.7217 52.1442 33.7537C54.6961 33.7777 57.1601 34.7617 59.024 36.5056C59.656 37.0976 60.2 37.7536 60.656 38.4576C60.816 38.7056 61.128 38.8096 61.4 38.7136C62.8079 38.2256 64.2959 37.8816 65.8238 37.7216C66.2718 37.6736 66.5278 37.1936 66.3278 36.7936C63.7279 31.6498 58.416 28.0979 52.2722 28.0019C43.4005 27.8659 36.0087 35.1377 36.0087 43.9934C36.0087 49.0173 38.3206 53.4971 41.9445 56.433C39.4006 57.609 37.0567 59.233 35.0247 61.2649C30.6409 65.6408 28.1609 71.4166 28.0009 77.5844C27.9988 77.6698 28.0138 77.7547 28.045 77.8343C28.0762 77.9138 28.123 77.9862 28.1826 78.0473C28.2423 78.1085 28.3135 78.157 28.3923 78.1902C28.471 78.2234 28.5555 78.2404 28.6409 78.2404H33.1288C33.4728 78.2404 33.7608 77.9684 33.7688 77.6244C33.9208 72.9846 35.8007 68.6407 39.1046 65.3448C41.4565 62.9929 44.3365 61.3609 47.4804 60.5689C47.7924 60.4889 48.0003 60.1929 47.9603 59.8729Z" fill="white"/>
</svg>
