<svg width="48" height="48" viewBox="0 0 48 48" fill="none" xmlns="http://www.w3.org/2000/svg">
<rect x="1" y="1" width="46" height="46" rx="23" fill="#111204"/>
<rect x="1" y="1" width="46" height="46" rx="23" stroke="#C0FE62" stroke-width="2"/>
<path d="M31.3172 28.404C30.7306 27.8169 30.0451 27.3377 29.2922 26.9883C30.354 26.1282 31.0313 24.8157 31.0313 23.3438C31.0313 20.7469 28.8657 18.6165 26.2688 18.6563C23.7118 18.6962 21.6516 20.7797 21.6516 23.3438C21.6516 24.8157 22.3313 26.1282 23.3907 26.9883C22.6377 27.3374 21.9522 27.8166 21.3657 28.404C20.086 29.686 19.3594 31.3782 19.3126 33.1829C19.3119 33.2079 19.3163 33.2328 19.3255 33.2561C19.3346 33.2794 19.3483 33.3006 19.3658 33.3185C19.3833 33.3364 19.4041 33.3506 19.4272 33.3604C19.4503 33.3701 19.475 33.3751 19.5001 33.3751H20.8126C20.9133 33.3751 20.9977 33.2954 21.0001 33.1946C21.0446 31.8352 21.5954 30.5626 22.5633 29.5969C23.0587 29.099 23.6478 28.7042 24.2968 28.4355C24.9457 28.1667 25.6414 28.0294 26.3438 28.0313C27.7712 28.0313 29.1141 28.5868 30.1243 29.5969C31.0899 30.5626 31.6407 31.8352 31.6876 33.1946C31.6899 33.2954 31.7743 33.3751 31.8751 33.3751H33.1876C33.2126 33.3751 33.2374 33.3701 33.2604 33.3604C33.2835 33.3506 33.3044 33.3364 33.3218 33.3185C33.3393 33.3006 33.353 33.2794 33.3622 33.2561C33.3713 33.2328 33.3757 33.2079 33.3751 33.1829C33.3282 31.3782 32.6016 29.686 31.3172 28.404ZM26.3438 26.3438C25.5422 26.3438 24.7876 26.0321 24.2227 25.4649C23.9392 25.1837 23.7153 24.8482 23.5643 24.4786C23.4133 24.1089 23.3383 23.7126 23.3438 23.3133C23.3508 22.5446 23.6579 21.8016 24.1946 21.2508C24.7571 20.6743 25.5094 20.3532 26.3133 20.3438C27.1079 20.3368 27.879 20.6462 28.4462 21.2016C29.0274 21.7712 29.3462 22.5329 29.3462 23.3438C29.3462 24.1454 29.0344 24.8977 28.4672 25.4649C28.189 25.7445 27.858 25.9661 27.4935 26.117C27.1291 26.2679 26.7383 26.345 26.3438 26.3438ZM20.4727 23.9626C20.4516 23.7587 20.4399 23.5524 20.4399 23.3438C20.4399 22.9712 20.4751 22.6079 20.5407 22.254C20.5571 22.1696 20.5126 22.0829 20.4352 22.0477C20.1165 21.9047 19.8235 21.7079 19.5704 21.4594C19.2721 21.1702 19.0374 20.822 18.8812 20.4371C18.7251 20.0521 18.6508 19.6388 18.6633 19.2235C18.6844 18.4712 18.9868 17.7563 19.5141 17.2172C20.093 16.6243 20.8712 16.3008 21.6985 16.3102C22.4462 16.3172 23.168 16.6055 23.7141 17.1165C23.8993 17.2899 24.0587 17.4821 24.1922 17.6883C24.2391 17.761 24.3305 17.7915 24.4102 17.7633C24.8227 17.6204 25.2587 17.5196 25.7063 17.4727C25.8376 17.4587 25.9126 17.318 25.854 17.2008C25.0922 15.6938 23.536 14.6532 21.736 14.6251C19.1368 14.5852 16.9712 16.7157 16.9712 19.3102C16.9712 20.7821 17.6485 22.0946 18.7102 22.9547C17.9649 23.2993 17.2782 23.7751 16.6829 24.3704C15.3985 25.6524 14.6719 27.3446 14.6251 29.1516C14.6244 29.1766 14.6288 29.2015 14.638 29.2248C14.6471 29.2481 14.6608 29.2693 14.6783 29.2872C14.6958 29.3052 14.7166 29.3194 14.7397 29.3291C14.7628 29.3388 14.7875 29.3438 14.8126 29.3438H16.1274C16.2282 29.3438 16.3126 29.2641 16.3149 29.1633C16.3594 27.804 16.9102 26.5313 17.8782 25.5657C18.5672 24.8766 19.411 24.3985 20.3321 24.1665C20.4235 24.143 20.4844 24.0563 20.4727 23.9626Z" fill="white"/>
</svg>
